<svg width="930" height="521" viewBox="0 0 930 521" fill="none" xmlns="http://www.w3.org/2000/svg">
<path d="M49.5 259.712H85L69.5 177.212C67 166.212 63.7 146.012 72.5 143.212C81.3 140.412 86.1667 148.879 87.5 151.212C143.167 247.046 256.3 441.512 273.5 474.712C290.7 507.912 324.333 518.879 339 520.212H460L391 159.212C389.333 154.712 387.9 145.012 395.5 142.212C403.1 139.412 408 143.379 409.5 145.712C464.167 241.712 578.6 441.912 599 474.712C619.4 507.512 657.167 519.046 673.5 520.712H786.5L721.5 174.712L821 520.712H858L792.5 174.712L892 520.712H929.5L830.5 0.712402H795L861.5 355.212L758.5 0.712402H723L790.5 355.212L687 0.712402H651.5L721.5 365.712C722.5 368.879 722.8 376.012 716 379.212C709.2 382.412 703.833 377.879 702 375.212C646.833 279.712 531.5 79.9124 511.5 44.7124C491.5 9.5124 453.167 0.379069 436.5 0.212402H325.5L395 365.712C396.333 368.712 397.3 375.512 390.5 378.712C383.7 381.912 378.667 378.379 377 376.212L370.5 365.712L196 61.7124C160.8 2.11241 118 -1.1214 99 0.211934H0L49.5 259.712Z" fill="#191714"/>
</svg>
